<svg width="215" height="174" viewBox="0 0 215 174" xmlns="http://www.w3.org/2000/svg" xmlns:xlink="http://www.w3.org/1999/xlink"><title>Cartographer</title><g><use xlink:href="#a" transform="translate(25.358 54)" fill="#568AFF"/><g><use xlink:href="#b" transform="translate(34.358 44)"/><use xlink:href="#c" transform="translate(24.13 37.9)"/><use xlink:href="#d" transform="translate(55.65 86.92)"/><use xlink:href="#e" transform="translate(72.821 76.71)"/><use xlink:href="#e" transform="translate(72.821 97.13)"/><use xlink:href="#f" transform="translate(89.988 66.5)"/><use xlink:href="#f" transform="translate(89.988 107.34)"/><use xlink:href="#g" transform="translate(107.151 136.93)"/><use xlink:href="#h" transform="translate(101.016 166.28)"/><use xlink:href="#i" transform="translate(107.151 11.92)"/><use xlink:href="#j" transform="translate(100.452 .93)"/><use xlink:href="#k" transform="translate(152.484 56.79)"/><g><use xlink:href="#l" transform="translate(10.465 56.79)"/><use xlink:href="#m" transform="translate(10.276 96.75)"/><use xlink:href="#n" transform="translate(.776 96.75)"/><use xlink:href="#m" transform="translate(26.026 106.09)"/><use xlink:href="#n" transform="translate(16.526 106.09)"/><use xlink:href="#m" transform="translate(41.776 115.42)"/><use xlink:href="#n" transform="translate(32.276 115.42)"/><use xlink:href="#m" transform="translate(10.276 78.1)"/><use xlink:href="#n" transform="translate(.776 78.1)"/><use xlink:href="#m" transform="translate(26.026 68.77)"/><use xlink:href="#n" transform="translate(16.526 68.77)"/><use xlink:href="#m" transform="translate(41.776 59.43)"/><use xlink:href="#n" transform="translate(32.276 59.43)"/></g><use xlink:href="#o" transform="translate(188.32 96.75)"/><use xlink:href="#p" transform="translate(209.13 96.75)"/><use xlink:href="#o" transform="translate(172.569 106.09)"/><use xlink:href="#p" transform="translate(193.38 106.09)"/><use xlink:href="#o" transform="translate(156.819 115.42)"/><use xlink:href="#p" transform="translate(177.634 115.42)"/><use xlink:href="#o" transform="translate(188.32 78.1)"/><use xlink:href="#p" transform="translate(209.13 78.1)"/><use xlink:href="#o" transform="translate(172.569 68.77)"/><use xlink:href="#p" transform="translate(193.38 68.77)"/><use xlink:href="#o" transform="translate(156.819 59.43)"/><use xlink:href="#p" transform="translate(177.634 59.43)"/></g></g><defs><path id="a" fill-rule="evenodd" d="M72.792 86.836L0 43.418 72.792 0l72.792 43.418-72.792 43.418z"/><path id="b" d="M72.792 86.836l-.768 1.288a1.5 1.5 0 0 0 1.536 0l-.768-1.288zM0 43.418l-.768-1.288a1.5 1.5 0 0 0 0 2.576L0 43.418zM72.792 0l.768-1.288a1.5 1.5 0 0 0-1.536 0L72.792 0zm72.792 43.418l.768 1.288a1.5 1.5 0 0 0 0-2.576l-.768 1.288zM73.56 85.548L.768 42.13l-1.536 2.576 72.792 43.418 1.536-2.576zM.768 44.706L73.56 1.288l-1.536-2.576L-.768 42.13l1.536 2.576zM72.024 1.288l72.792 43.418 1.536-2.576L73.56-1.288l-1.536 2.576zm72.792 40.842L72.024 85.548l1.536 2.576 72.792-43.418-1.536-2.576z"/><path id="c" d="M83.02 0l.384-.644a.75.75 0 0 0-.768 0L83.02 0zm83.02 49.519l.384.644a.75.75 0 0 0 0-1.288l-.384.644zM83.02 99.038l-.384.644a.75.75 0 0 0 .768 0l-.384-.644zM.384 50.163L83.404.644l-.768-1.288-83.02 49.519.768 1.288zM82.636.644l83.02 49.52.768-1.29L83.404-.643 82.636.644zm83.02 48.23l-83.02 49.52.768 1.288 83.02-49.519-.768-1.288zm-82.252 49.52L.384 48.874l-.768 1.29 83.02 49.518.768-1.288z"/><path id="d" d="M0-.75a.75.75 0 1 0 0 1.5v-1.5zm103 1.5a.75.75 0 0 0 0-1.5v1.5zM0 .75c1.909 0 2.823.64 3.86 1.365C4.968 2.889 6.2 3.75 8.581 3.75v-1.5c-1.91 0-2.824-.64-3.861-1.365C3.612.111 2.38-.75 0-.75v1.5zm8.581 3c2.382 0 3.613-.86 4.72-1.635C14.34 1.389 15.255.75 17.164.75v-1.5c-2.382 0-3.613.86-4.72 1.635-1.038.726-1.953 1.365-3.862 1.365v1.5zm8.582-3c1.91 0 2.824.64 3.861 1.365 1.109.774 2.34 1.635 4.722 1.635v-1.5c-1.91 0-2.825-.64-3.862-1.365C20.776.111 19.544-.75 17.163-.75v1.5zm8.583 3c2.382 0 3.613-.86 4.72-1.635C31.505 1.389 32.42.75 34.329.75v-1.5c-2.382 0-3.613.86-4.72 1.635-1.038.726-1.953 1.365-3.862 1.365v1.5zm8.582-3c1.909 0 2.823.64 3.86 1.365 1.108.774 2.339 1.635 4.72 1.635v-1.5c-1.909 0-2.823-.64-3.86-1.365C37.94.111 36.709-.75 34.328-.75v1.5zm8.58 3c2.381 0 3.612-.86 4.72-1.635C48.665 1.389 49.58.75 51.489.75v-1.5c-2.382 0-3.613.86-4.72 1.635-1.038.726-1.952 1.365-3.861 1.365v1.5zm8.581-3c1.909 0 2.823.64 3.86 1.365 1.108.774 2.34 1.635 4.721 1.635v-1.5c-1.91 0-2.824-.64-3.861-1.365C55.1.111 53.87-.75 51.489-.75v1.5zm8.581 3c2.382 0 3.613-.86 4.72-1.635C65.829 1.389 66.744.75 68.654.75v-1.5c-2.382 0-3.613.86-4.722 1.635-1.037.726-1.952 1.365-3.861 1.365v1.5zm8.583-3c1.91 0 2.825.64 3.862 1.365 1.109.775 2.34 1.635 4.723 1.635v-1.5c-1.91 0-2.826-.64-3.863-1.365C72.266.111 71.035-.75 68.653-.75v1.5zm8.585 3c2.382 0 3.613-.86 4.722-1.635C82.997 1.389 83.912.75 85.822.75v-1.5C83.44-.75 82.209.11 81.1.885c-1.037.726-1.952 1.365-3.862 1.365v1.5zm8.584-3c1.911 0 2.826.64 3.865 1.365 1.109.775 2.34 1.635 4.724 1.635v-1.5c-1.912 0-2.827-.64-3.865-1.365C89.436.11 88.205-.75 85.822-.75v1.5zm8.589 3c2.383 0 3.615-.86 4.724-1.635C100.173 1.39 101.088.75 103 .75v-1.5c-2.383 0-3.615.86-4.724 1.635-1.039.725-1.954 1.365-3.865 1.365v1.5z"/><path id="e" d="M0-.75a.75.75 0 1 0 0 1.5v-1.5zM68.659.75a.75.75 0 0 0 0-1.5v1.5zM0 .75c1.91 0 2.825.64 3.862 1.365 1.108.774 2.34 1.635 4.721 1.635v-1.5c-1.91 0-2.824-.64-3.861-1.365C3.613.111 2.382-.75 0-.75v1.5zm8.583 3c2.382 0 3.613-.86 4.72-1.635C14.342 1.389 15.257.75 17.166.75v-1.5c-2.382 0-3.613.86-4.72 1.635-1.038.726-1.953 1.365-3.862 1.365v1.5zm8.582-3c1.909 0 2.823.64 3.86 1.365 1.108.774 2.339 1.635 4.72 1.635v-1.5c-1.909 0-2.823-.64-3.86-1.365C20.777.111 19.546-.75 17.165-.75v1.5zm8.58 3c2.382 0 3.613-.86 4.72-1.635C31.504 1.389 32.418.75 34.327.75v-1.5c-2.381 0-3.612.86-4.72 1.635-1.037.726-1.952 1.365-3.861 1.365v1.5zm8.581-3c1.909 0 2.823.64 3.86 1.365 1.108.774 2.34 1.635 4.721 1.635v-1.5c-1.91 0-2.824-.64-3.861-1.365C37.938.111 36.707-.75 34.326-.75v1.5zm8.581 3c2.382 0 3.613-.86 4.72-1.635C48.666 1.389 49.58.75 51.49.75v-1.5c-2.382 0-3.613.86-4.722 1.635-1.037.726-1.952 1.365-3.861 1.365v1.5zm8.583-3c1.91 0 2.826.64 3.863 1.365 1.11.775 2.34 1.635 4.723 1.635v-1.5c-1.91 0-2.825-.64-3.863-1.365C55.104.11 53.873-.75 51.49-.75v1.5zm8.586 3c2.382 0 3.613-.86 4.72-1.635C65.835 1.389 66.75.75 68.66.75v-1.5c-2.382 0-3.613.86-4.722 1.635-1.037.726-1.952 1.365-3.861 1.365v1.5z"/><path id="f" d="M0-.75a.75.75 0 1 0 0 1.5v-1.5zM34.325.75a.75.75 0 0 0 0-1.5v1.5zM0 .75c1.909 0 2.823.64 3.86 1.365C4.968 2.889 6.2 3.75 8.581 3.75v-1.5c-1.91 0-2.824-.64-3.861-1.365C3.612.111 2.38-.75 0-.75v1.5zm8.581 3c2.381 0 3.612-.86 4.72-1.635C14.338 1.389 15.252.75 17.16.75v-1.5c-2.381 0-3.612.86-4.72 1.635-1.037.726-1.951 1.365-3.86 1.365v1.5zm8.58-3c1.91 0 2.824.64 3.861 1.365 1.108.774 2.339 1.635 4.72 1.635v-1.5c-1.909 0-2.823-.64-3.86-1.365C20.774.111 19.542-.75 17.16-.75v1.5zm8.581 3c2.382 0 3.613-.86 4.722-1.635C31.5 1.389 32.416.75 34.325.75v-1.5c-2.382 0-3.613.86-4.72 1.635-1.038.726-1.953 1.365-3.863 1.365v1.5z"/><path id="g" d="M.75 0a.75.75 0 1 0-1.5 0h1.5zm-1.5 35.344a.75.75 0 0 0 1.5 0h-1.5zM-.75 0v35.344h1.5V0h-1.5z"/><path id="h" fill-rule="evenodd" d="M0 1.023L1.099 0l5.034 5.418L11.169 0l1.099 1.023L6.133 7.62 0 1.023z"/><path id="i" d="M.75 0a.75.75 0 1 0-1.5 0h1.5zm-1.5 25.982a.75.75 0 0 0 1.5 0h-1.5zM-.75 0v25.982h1.5V0h-1.5z"/><path id="j" fill-rule="evenodd" d="M7.405 11.567l5.992-3.459V6.486l-5.992 3.46V8.325l5.992-3.46V3.243l-5.992 3.46V5.082l5.992-3.461V0L7.405 3.461V1.802H5.992v1.659L0 0v1.621l5.992 3.461v1.621L0 3.243v1.622l5.992 3.46v1.621L0 6.486v1.622l5.992 3.459h1.413z"/><path id="k" d="M-.768 59.972a1.5 1.5 0 1 0 1.536 2.576l-1.536-2.576zm52.12-29.342l.768 1.288a1.5 1.5 0 0 0 0-2.576l-.768 1.288zM.768-1.288A1.5 1.5 0 1 0-.768 1.288L.768-1.288zm0 63.836l51.352-30.63-1.536-2.576-51.352 30.63 1.536 2.576zM52.12 29.342L.768-1.288-.768 1.288l51.352 30.63 1.536-2.576z"/><path id="l" d="M52.12 1.288a1.5 1.5 0 1 0-1.536-2.576l1.536 2.576zM0 30.63l-.768-1.288a1.5 1.5 0 0 0 0 2.576L0 30.63zm50.584 31.918a1.5 1.5 0 1 0 1.536-2.576l-1.536 2.576zm0-63.836L-.768 29.342l1.536 2.576L52.12 1.288l-1.536-2.576zM-.768 31.918l51.352 30.63 1.536-2.576L.768 29.342l-1.536 2.576z"/><path id="m" d="M15.814.75a.75.75 0 0 0 0-1.5v1.5zM0-.75a.75.75 0 1 0 0 1.5v-1.5zm15.814 0H0v1.5h15.814v-1.5z"/><path id="n" d="M4.5.75a.75.75 0 0 0 0-1.5v1.5zM0-.75a.75.75 0 1 0 0 1.5v-1.5zm4.5 0H0v1.5h4.5v-1.5z"/><path id="o" d="M0-.75a.75.75 0 1 0 0 1.5v-1.5zM15.814.75a.75.75 0 0 0 0-1.5v1.5zM0 .75h15.814v-1.5H0v1.5z"/><path id="p" d="M0-.75a.75.75 0 1 0 0 1.5v-1.5zM4.5.75a.75.75 0 0 0 0-1.5v1.5zM0 .75h4.5v-1.5H0v1.5z"/></defs></svg>