<svg width="203" height="182" viewBox="0 0 203 182" xmlns="http://www.w3.org/2000/svg" xmlns:xlink="http://www.w3.org/1999/xlink"><title>Social Science</title><g><use xlink:href="#a" transform="translate(64.848 32.25)" fill="#8C41DA"/><g><use xlink:href="#b" transform="translate(49.954 31.93)"/><use xlink:href="#c" transform="translate(53.954 36.3)"/><g><use xlink:href="#d" transform="translate(81.954 86.3)"/><use xlink:href="#e" transform="translate(87.954 97.3)"/><use xlink:href="#f" transform="translate(86.954 92.3)"/><use xlink:href="#g" transform="translate(93.954 94.8)"/><use xlink:href="#h" transform="translate(104.954 80.3)"/><use xlink:href="#i" transform="translate(107.454 91.4)"/><use xlink:href="#j" transform="translate(104.954 95.3)"/><use xlink:href="#k" transform="translate(96.954 86.3)"/><use xlink:href="#d" transform="translate(106.954 98.3)"/><use xlink:href="#d" transform="translate(113.954 88.3)"/><use xlink:href="#e" transform="translate(109.954 74.3)"/></g><g><use xlink:href="#l" transform="translate(.954 71.41)"/><use xlink:href="#l" transform="translate(.954 78.8)"/><use xlink:href="#l" transform="translate(.954 86.19)"/><use xlink:href="#l" transform="translate(.954 93.57)"/><use xlink:href="#l" transform="translate(.954 101.11)"/><use xlink:href="#l" transform="translate(.954 108.5)"/><use xlink:href="#l" transform="translate(152.664 71.41)"/><use xlink:href="#l" transform="translate(152.664 78.8)"/><use xlink:href="#l" transform="translate(152.664 86.19)"/><use xlink:href="#l" transform="translate(152.664 93.57)"/><use xlink:href="#l" transform="translate(152.664 100.96)"/><use xlink:href="#l" transform="translate(152.664 108.35)"/></g><use xlink:href="#m" transform="translate(101.223 2.434)"/><use xlink:href="#n" transform="matrix(1 0 0 1 95.15 .807)"/><use xlink:href="#o" transform="translate(101.202 145.21)"/><use xlink:href="#p" transform="translate(94.416 170.21)"/><use xlink:href="#q" transform="translate(140.25 46.82)"/><use xlink:href="#r" transform="translate(41.555 99.37)"/><use xlink:href="#s" transform="translate(42.728 46.94)"/><use xlink:href="#t" transform="translate(138.298 103.68)"/></g></g><defs><path id="a" d="M48.5 0L0 27.75v55.5L48.5 111 97 83.25v-55.5L48.5 0z"/><path id="b" d="M0 29.757l-.375-.65a.75.75 0 0 0-.375.65H0zM51.54 0l.375-.65a.75.75 0 0 0-.75 0l.375.65zm51.541 29.757h.75a.75.75 0 0 0-.375-.65l-.375.65zm0 59.514l.375.65a.75.75 0 0 0 .375-.65h-.75zM51.54 119.028l-.375.65a.755.755 0 0 0 .75 0l-.375-.65zM0 89.271h-.75a.75.75 0 0 0 .375.65L0 89.27zm.375-58.864L51.915.65l-.75-1.3-51.54 29.758.75 1.299zM51.165.65l51.541 29.757.75-1.3L51.915-.65l-.75 1.3zm51.166 29.107v59.514h1.5V29.757h-1.5zm.375 58.864l-51.541 29.757.75 1.3 51.541-29.757-.75-1.3zm-50.791 29.757L.375 88.621l-.75 1.3 51.54 29.757.75-1.3zM.75 89.271V29.757h-1.5v59.514h1.5z"/><path id="c" d="M0 27.354l-.75-1.299a1.5 1.5 0 0 0-.75 1.299H0zM47.379 0l.75-1.299a1.5 1.5 0 0 0-1.5 0L47.379 0zm47.378 27.354h1.5a1.5 1.5 0 0 0-.75-1.299l-.75 1.299zm0 54.708l.75 1.299a1.5 1.5 0 0 0 .75-1.299h-1.5zm-47.378 27.354l-.75 1.299a1.5 1.5 0 0 0 1.5 0l-.75-1.299zM0 82.062h-1.5a1.5 1.5 0 0 0 .75 1.299L0 82.062zm.75-53.409L48.129 1.299l-1.5-2.598L-.75 26.055l1.5 2.598zM46.629 1.299l47.378 27.354 1.5-2.598L48.129-1.299l-1.5 2.598zm46.628 26.055v54.708h3V27.354h-3zm.75 53.409l-47.378 27.354 1.5 2.598 47.378-27.354-1.5-2.598zm-45.878 27.354L.75 80.763l-1.5 2.598 47.379 27.354 1.5-2.598zM-1.5 27.354v54.708h3V27.354h-3z"/><path id="d" d="M5.25 3A2.25 2.25 0 0 1 3 5.25v1.5A3.75 3.75 0 0 0 6.75 3h-1.5zM3 5.25A2.25 2.25 0 0 1 .75 3h-1.5A3.75 3.75 0 0 0 3 6.75v-1.5zM.75 3A2.25 2.25 0 0 1 3 .75v-1.5A3.75 3.75 0 0 0-.75 3h1.5zM3 .75A2.25 2.25 0 0 1 5.25 3h1.5A3.75 3.75 0 0 0 3-.75v1.5z"/><path id="e" d="M6.25 3.5A2.75 2.75 0 0 1 3.5 6.25v1.5A4.25 4.25 0 0 0 7.75 3.5h-1.5zM3.5 6.25A2.75 2.75 0 0 1 .75 3.5h-1.5A4.25 4.25 0 0 0 3.5 7.75v-1.5zM.75 3.5A2.75 2.75 0 0 1 3.5.75v-1.5A4.25 4.25 0 0 0-.75 3.5h1.5zM3.5.75A2.75 2.75 0 0 1 6.25 3.5h1.5A4.25 4.25 0 0 0 3.5-.75v1.5z"/><path id="f" d="M.658-.36A.75.75 0 0 0-.658.36L.658-.36zm1.684 6.22a.75.75 0 1 0 1.316-.72l-1.316.72zm-3-5.5l3 5.5 1.316-.72-3-5.5-1.316.72z"/><path id="g" d="M4.494.564a.75.75 0 0 0-.988-1.128L4.494.564zM-.494 2.936a.75.75 0 1 0 .988 1.128l-.988-1.128zm4-3.5l-4 3.5.988 1.128 4-3.5-.988-1.128z"/><path id="h" d="M6.57.488a.75.75 0 1 0-1.14-.976l1.14.976zM-.57 6.512a.75.75 0 1 0 1.14.976l-1.14-.976zm6-7l-6 7 1.14.976 6-7-1.14-.976z"/><path id="i" d="M6.5.75a.75.75 0 0 0 0-1.5v1.5zM0-.75a.75.75 0 0 0 0 1.5v-1.5zm6.5 0H0v1.5h6.5v-1.5z"/><path id="j" d="M2.97 4.03a.75.75 0 0 0 1.06-1.06L2.97 4.03zM.53-.53A.75.75 0 0 0-.53.53L.53-.53zm3.5 3.5L.53-.53-.53.53l3.5 3.5 1.06-1.06z"/><path id="k" d="M9.25 5A4.25 4.25 0 0 1 5 9.25v1.5A5.75 5.75 0 0 0 10.75 5h-1.5zM5 9.25A4.25 4.25 0 0 1 .75 5h-1.5A5.75 5.75 0 0 0 5 10.75v-1.5zM.75 5A4.25 4.25 0 0 1 5 .75v-1.5A5.75 5.75 0 0 0-.75 5h1.5zM5 .75A4.25 4.25 0 0 1 9.25 5h1.5A5.75 5.75 0 0 0 5-.75v1.5z"/><path id="l" d="M0-.75a.75.75 0 1 0 0 1.5v-1.5zM48.603.75a.75.75 0 0 0 0-1.5v1.5zM0 .75c1.788 0 2.642.597 3.62 1.28 1.047.733 2.218 1.552 4.479 1.552v-1.5c-1.789 0-2.643-.597-3.62-1.28C3.431.068 2.261-.75 0-.75v1.5zm8.099 2.832c2.26 0 3.431-.819 4.479-1.551.977-.684 1.831-1.281 3.62-1.281v-1.5c-2.261 0-3.432.819-4.48 1.551-.977.684-1.83 1.281-3.619 1.281v1.5zM16.198.75c1.788 0 2.642.597 3.62 1.28 1.047.733 2.218 1.552 4.479 1.552v-1.5c-1.789 0-2.643-.597-3.62-1.28C19.629.068 18.459-.75 16.198-.75v1.5zm8.099 2.832c2.261 0 3.432-.819 4.48-1.551.977-.684 1.831-1.281 3.621-1.281v-1.5c-2.262 0-3.433.819-4.48 1.551-.978.684-1.832 1.281-3.621 1.281v1.5zM32.398.75c1.79 0 2.645.597 3.622 1.28 1.049.733 2.22 1.552 4.482 1.552v-1.5c-1.79 0-2.645-.597-3.622-1.28C35.83.068 34.66-.75 32.398-.75v1.5zm8.104 2.832c2.261 0 3.432-.819 4.48-1.551.977-.684 1.831-1.281 3.621-1.281v-1.5c-2.261 0-3.433.819-4.48 1.551-.978.684-1.832 1.281-3.621 1.281v1.5z"/><path id="m" d="M-.75 35.343a.75.75 0 1 0 1.5.002l-1.5-.002zM.819 0A.75.75 0 0 0-.681 0L.819 0zM.75 35.346L.819 0-.681 0-.75 35.342l1.5.004z"/><path id="n" fill-rule="evenodd" d="M12.268 6.609L11.167 7.63 6.143 2.202 1.097 7.61 0 6.585 6.148 0l6.12 6.609z"/><path id="o" d="M-.75 35a.75.75 0 0 0 1.5 0h-1.5zM.75 0a.75.75 0 1 0-1.5 0h1.5zm0 35V0h-1.5v35h1.5z"/><path id="p" fill-rule="evenodd" d="M6.015 0L.016 3.448.013 5.069l5.999-3.448-.003 1.621L.01 6.69.006 8.313l5.999-3.449-.003 1.621L.003 9.934 0 11.555l5.999-3.449-.003 1.659 1.412.003.004-1.659 5.985 3.473.003-1.622-5.985-3.472.003-1.622 5.985 3.473.004-1.623-5.986-3.471.003-1.621 5.986 3.471.003-1.621L7.427.003 6.015 0z"/><path id="q" d="M18.19 36.655a1.5 1.5 0 0 0 2.998.094l-2.998-.094zm2.25-23.988l1.5.047a1.5 1.5 0 0 0-.71-1.322l-.79 1.275zM.79-1.275a1.5 1.5 0 0 0-1.58 2.55l1.58-2.55zm20.398 38.024l.751-24.035-2.998-.094-.751 24.035 2.998.094zm.042-25.357L.79-1.275l-1.58 2.55 20.44 12.667 1.58-2.55z"/><path id="r" d="M2.25.047A1.5 1.5 0 0 0-.748-.047L2.25.047zM0 24.035l-1.5-.047a1.5 1.5 0 0 0 .71 1.322L0 24.035zm19.65 13.942a1.5 1.5 0 1 0 1.58-2.55l-1.58 2.55zM-.748-.047L-1.5 23.988l2.998.094L2.25.047-.748-.047zM-.79 25.31l20.44 12.667 1.58-2.55L.79 22.76l-1.58 2.55z"/><path id="s" d="M21.998 1.308a1.5 1.5 0 0 0-1.468-2.616l1.468 2.616zM.294 11.768L-.44 10.46a1.5 1.5 0 0 0-.766 1.29l1.5.018zM-1.5 35.794a1.5 1.5 0 1 0 3 .036l-3-.036zM20.53-1.308L-.44 10.46l1.468 2.616 20.97-11.768-1.468-2.616zM-1.206 11.75L-1.5 35.794l3 .036.294-24.044-3-.036z"/><path id="t" d="M-.734 34.504A1.5 1.5 0 1 0 .734 37.12l-1.468-2.616zm21.704-10.46l.734 1.308a1.5 1.5 0 0 0 .766-1.29l-1.5-.018zM22.764.018a1.5 1.5 0 0 0-3-.036l3 .036zM.734 37.12l20.97-11.768-1.468-2.616-20.97 11.768L.734 37.12zM22.47 24.062L22.764.018l-3-.036-.294 24.044 3 .036z"/></defs></svg>