<svg width="175" height="174" viewBox="0 0 175 174" xmlns="http://www.w3.org/2000/svg" xmlns:xlink="http://www.w3.org/1999/xlink"><title>Crash</title><g><use xlink:href="#a" transform="translate(54.205 50.82)" fill="#ED953A"/><g><use xlink:href="#b" transform="translate(43.379 42.32)"/><use xlink:href="#c" transform="rotate(45 -52.23 131.065)"/><use xlink:href="#c" transform="rotate(-45 157.372 -44.245)"/><use xlink:href="#d" transform="translate(39.027 37.64)"/><use xlink:href="#e" transform="translate(48.542 31.14)"/><use xlink:href="#f" transform="translate(48.543 126.24)"/><use xlink:href="#g" transform="translate(88.461 9.07)"/><use xlink:href="#h" transform="translate(88.461 1.32)"/><use xlink:href="#i" transform="translate(75.839 14.72)"/><use xlink:href="#j" transform="translate(74.493 7.08)"/><use xlink:href="#k" transform="translate(52.094 23.27)"/><use xlink:href="#l" transform="translate(48.219 16.55)"/><use xlink:href="#m" transform="translate(51.661 135.36)"/><use xlink:href="#n" transform="translate(47.786 154.54)"/><use xlink:href="#o" transform="translate(75.346 142)"/><use xlink:href="#p" transform="translate(74.001 163.81)"/><use xlink:href="#q" transform="translate(97.547 142.09)"/><use xlink:href="#r" transform="translate(101.394 163.9)"/><use xlink:href="#s" transform="translate(115.587 135.61)"/><use xlink:href="#t" transform="translate(126.661 154.79)"/><use xlink:href="#u" transform="translate(116.02 23.52)"/><use xlink:href="#v" transform="translate(127.094 16.8)"/><use xlink:href="#w" transform="translate(98.04 14.8)"/><use xlink:href="#x" transform="translate(101.886 7.17)"/><use xlink:href="#y" transform="translate(61.783 13.78)"/><use xlink:href="#z" transform="translate(59.132 6.49)"/><use xlink:href="#A" transform="translate(38.323 27.32)"/><use xlink:href="#B" transform="translate(33.342 21.38)"/><use xlink:href="#C" transform="translate(38.323 129.92)"/><use xlink:href="#D" transform="translate(33.342 150.4)"/><use xlink:href="#E" transform="translate(61.783 139.63)"/><use xlink:href="#F" transform="translate(59.132 164.75)"/><use xlink:href="#G" transform="translate(88.461 143.01)"/><use xlink:href="#H" transform="translate(88.461 169.74)"/><use xlink:href="#I" transform="translate(107.592 139.63)"/><use xlink:href="#J" transform="translate(116.735 164.75)"/><use xlink:href="#K" transform="translate(124.415 129.92)"/><use xlink:href="#L" transform="translate(141.598 150.4)"/><use xlink:href="#M" transform="translate(124.415 27.32)"/><use xlink:href="#N" transform="translate(141.598 21.38)"/><use xlink:href="#O" transform="translate(107.592 13.78)"/><use xlink:href="#P" transform="translate(116.735 6.49)"/><use xlink:href="#Q" transform="translate(137.896 87.07)"/><use xlink:href="#R" transform="translate(167.246 80.94)"/><use xlink:href="#S" transform="translate(12.884 87.07)"/><use xlink:href="#T" transform="translate(1.896 80.37)"/><use xlink:href="#U" transform="translate(32.105 51.99)"/><use xlink:href="#V" transform="translate(21.355 52)"/><use xlink:href="#W" transform="translate(22.113 63.77)"/><use xlink:href="#V" transform="translate(11.363 63.79)"/><use xlink:href="#X" transform="translate(17.121 75.55)"/><use xlink:href="#V" transform="translate(6.371 75.57)"/><use xlink:href="#Y" transform="translate(12.129 87.34)"/><use xlink:href="#V" transform="translate(1.379 87.36)"/><use xlink:href="#X" transform="translate(17.137 99.12)"/><use xlink:href="#V" transform="translate(6.387 99.13)"/><use xlink:href="#W" transform="translate(23.146 110.9)"/><use xlink:href="#V" transform="translate(12.396 110.91)"/><use xlink:href="#U" transform="translate(33.155 122.68)"/><use xlink:href="#V" transform="translate(22.404 122.69)"/><use xlink:href="#Z" transform="translate(133.566 53.54)"/><use xlink:href="#aa" transform="translate(143.564 53.42)"/><use xlink:href="#ab" transform="translate(138.85 62.99)"/><use xlink:href="#aa" transform="translate(158.847 62.86)"/><use xlink:href="#ac" transform="translate(138.991 74.71)"/><use xlink:href="#aa" transform="translate(163.989 74.58)"/><use xlink:href="#ac" transform="translate(139.274 98.27)"/><use xlink:href="#aa" transform="translate(164.272 98.14)"/><use xlink:href="#ab" transform="translate(139.416 110.11)"/><use xlink:href="#aa" transform="translate(159.414 109.98)"/><use xlink:href="#ad" transform="translate(133.558 121.95)"/><use xlink:href="#aa" transform="translate(148.556 121.82)"/></g></g><defs><path id="a" fill-rule="evenodd" d="M90.511 45.255c0 24.994-20.262 45.255-45.255 45.255C20.262 90.51 0 70.249 0 45.255 0 20.261 20.262 0 45.256 0c24.993 0 45.255 20.261 45.255 45.255z"/><path id="b" d="M89.011 45.255c0 24.166-19.59 43.755-43.755 43.755v3c25.821 0 46.755-20.933 46.755-46.755h-3zM45.256 89.01C21.09 89.01 1.5 69.42 1.5 45.255h-3c0 25.822 20.934 46.755 46.756 46.755v-3zM1.5 45.255C1.5 21.089 21.09 1.5 45.256 1.5v-3C19.434-1.5-1.5 19.433-1.5 45.255h3zM45.256 1.5c24.165 0 43.755 19.59 43.755 43.755h3C92.011 19.433 71.077-1.5 45.256-1.5v3z"/><path id="c" d="M.75-1.5a.75.75 0 0 0 0 1.5v-1.5zM31.777 0a.75.75 0 0 0 0-1.5V0zM.75 0h31.027v-1.5H.75V0z"/><path id="d" d="M98.119 49.435c0 26.888-21.797 48.685-48.685 48.685v1.5c27.716 0 50.185-22.469 50.185-50.185h-1.5zM49.434 98.12C22.546 98.12.75 76.323.75 49.435h-1.5c0 27.716 22.468 50.185 50.184 50.185v-1.5zM.75 49.435C.75 22.547 22.546.75 49.434.75v-1.5C21.718-.75-.75 21.719-.75 49.435h1.5zM49.434.75c26.888 0 48.685 21.797 48.685 48.685h1.5C99.619 21.719 77.15-.75 49.434-.75v1.5z"/><path id="e" d="M78.766 17.819a1.5 1.5 0 0 0 2.142-2.102l-2.142 2.102zM-1.07 15.717a1.5 1.5 0 1 0 2.142 2.102l-2.142-2.102zm81.979 0C70.488 5.098 55.976-1.5 39.919-1.5v3c15.217 0 28.967 6.25 38.847 16.319l2.142-2.102zM39.919-1.5C23.862-1.5 9.35 5.098-1.071 15.717l2.142 2.102C10.95 7.749 24.7 1.5 39.919 1.5v-3z"/><path id="f" d="M1.07-1.05a1.5 1.5 0 1 0-2.14 2.1l2.14-2.1zm79.838 2.1a1.5 1.5 0 0 0-2.142-2.1l2.142 2.1zm-81.979 0C9.35 11.67 23.861 18.269 39.918 18.269v-3c-15.217 0-28.967-6.25-38.847-16.319l-2.142 2.102zm40.989 17.218c16.057 0 30.569-6.598 40.99-17.217l-2.142-2.102c-9.88 10.07-23.63 16.319-38.848 16.319v3z"/><path id="g" d="M-.75 22.066a.75.75 0 0 0 1.5 0h-1.5zM.75 0a.75.75 0 1 0-1.5 0h1.5zm0 22.066V0h-1.5v22.066h1.5z"/><path id="h" d="M-.75 3.083a.75.75 0 0 0 1.5 0h-1.5zM.75 0a.75.75 0 1 0-1.5 0h1.5zm0 3.083V0h-1.5v3.083h1.5z"/><path id="i" d="M2.297 17.347a.75.75 0 1 0 1.478-.26l-1.478.26zM.74-.13A.75.75 0 1 0-.74.13L.74-.13zm3.036 17.217L.739-.13-.74.13l3.036 17.217 1.478-.26z"/><path id="j" d="M-.204 3.166a.75.75 0 0 0 1.478-.26l-1.478.26zM.74-.13A.75.75 0 0 0-.74.13L.74-.13zm.535 3.036L.739-.13-.74.13l.535 3.036 1.478-.26z"/><path id="k" d="M8.091 15.515a.75.75 0 0 0 1.3-.75l-1.3.75zM.65-.375a.75.75 0 0 0-1.3.75l1.3-.75zm8.74 15.14L.65-.375l-1.3.75 8.741 15.14 1.3-.75z"/><path id="l" d="M.893 3.045a.75.75 0 0 0 1.298-.75l-1.298.75zM.649-.375a.75.75 0 0 0-1.298.75l1.298-.75zm1.542 2.67L.65-.375l-1.298.75 1.542 2.67 1.298-.75z"/><path id="m" d="M9.39.375a.75.75 0 1 0-1.299-.75l1.3.75zM-.65 14.765a.75.75 0 0 0 1.3.75l-1.3-.75zM8.091-.375l-8.74 15.14 1.299.75L9.39.375l-1.299-.75z"/><path id="n" d="M2.191.375a.75.75 0 0 0-1.298-.75l1.298.75zm-2.84 1.92a.75.75 0 0 0 1.298.75l-1.298-.75zM.893-.375L-.65 2.295l1.298.75L2.191.375.893-.375z"/><path id="o" d="M3.775.13a.75.75 0 1 0-1.478-.26l1.478.26zM-.74 17.087a.75.75 0 1 0 1.478.26l-1.478-.26zM2.297-.13L-.739 17.087l1.478.26L3.775.13 2.297-.13z"/><path id="p" d="M1.274.13A.75.75 0 0 0-.204-.13l1.478.26zM-.74 2.906a.75.75 0 0 0 1.478.26l-1.478-.26zM-.204-.13l-.535 3.036 1.478.26L1.274.13-.204-.13z"/><path id="q" d="M.739-.13A.75.75 0 1 0-.74.13L.74-.13zm1.558 17.477a.75.75 0 1 0 1.478-.26l-1.478.26zM-.739.13l3.036 17.217 1.478-.26L.739-.13-.74.13z"/><path id="r" d="M.739-.13A.75.75 0 0 0-.74.13L.74-.13zm-.943 3.296a.75.75 0 0 0 1.478-.26l-1.478.26zM-.739.13l.535 3.036 1.478-.26L.739-.13-.74.13z"/><path id="s" d="M.65-.375a.75.75 0 0 0-1.3.75l1.3-.75zm7.441 15.89a.75.75 0 0 0 1.3-.75l-1.3.75zM-.649.375l8.74 15.14 1.3-.75L.65-.375l-1.3.75z"/><path id="t" d="M.65-.375a.75.75 0 0 0-1.3.75l1.3-.75zm.243 3.42a.75.75 0 0 0 1.298-.75l-1.298.75zM-.65.375l1.542 2.67 1.298-.75L.65-.375l-1.298.75z"/><path id="u" d="M-.65 14.765a.75.75 0 0 0 1.3.75l-1.3-.75zM9.39.375a.75.75 0 1 0-1.299-.75l1.3.75zM.65 15.515L9.39.375l-1.299-.75-8.74 15.14 1.299.75z"/><path id="v" d="M-.65 2.295a.75.75 0 0 0 1.3.75l-1.3-.75zM2.192.375a.75.75 0 0 0-1.298-.75l1.298.75zM.65 3.045L2.191.375.893-.375-.65 2.295l1.298.75z"/><path id="w" d="M-.739 17.087a.75.75 0 1 0 1.478.26l-1.478-.26zM3.775.13a.75.75 0 1 0-1.478-.26l1.478.26zM.739 17.347L3.775.13 2.297-.13-.739 17.087l1.478.26z"/><path id="x" d="M-.739 2.906a.75.75 0 0 0 1.478.26l-1.478-.26zM1.274.13A.75.75 0 0 0-.204-.13l1.478.26zM.739 3.166L1.274.13-.204-.13l-.535 3.036 1.478.26z"/><path id="y" d="M6.842 20.991a.75.75 0 1 0 1.41-.512l-1.41.512zM.705-.257a.75.75 0 0 0-1.41.514l1.41-.514zM8.252 20.48L.705-.258l-1.41.514 7.547 20.735 1.41-.514z"/><path id="z" d="M.35 3.154a.75.75 0 1 0 1.41-.514l-1.41.514zm.355-3.41a.75.75 0 1 0-1.41.513l1.41-.514zM1.76 2.64L.705-.257l-1.41.514L.35 3.154l1.41-.514z"/><path id="A" d="M13.61 17.385a.75.75 0 1 0 1.149-.964l-1.15.964zM.575-.482a.75.75 0 0 0-1.15.964l1.15-.964zM14.759 16.42L.575-.482l-1.15.964L13.61 17.385l1.15-.964z"/><path id="B" d="M1.407 2.844a.75.75 0 0 0 1.15-.964l-1.15.964zM.575-.482a.75.75 0 1 0-1.15.964l1.15-.964zM2.557 1.88L.575-.482l-1.15.964 1.982 2.362 1.15-.964z"/><path id="C" d="M14.758.482a.75.75 0 1 0-1.148-.964l1.149.964zM-.575 16.421a.75.75 0 1 0 1.15.964l-1.15-.964zM13.61-.482L-.574 16.42l1.15.964L14.759.482l-1.15-.964z"/><path id="D" d="M2.557.482a.75.75 0 0 0-1.15-.964l1.15.964zM-.575 1.88a.75.75 0 0 0 1.15.964l-1.15-.964zM1.407-.482L-.575 1.88l1.15.964L2.557.482l-1.15-.964z"/><path id="E" d="M8.252.257a.75.75 0 0 0-1.41-.514l1.41.514zM-.705 20.479a.75.75 0 0 0 1.41.512l-1.41-.512zM6.842-.258L-.705 20.48l1.41.512L8.252.257l-1.41-.514z"/><path id="F" d="M1.76.257A.75.75 0 1 0 .35-.257l1.41.514zM-.705 2.64a.75.75 0 1 0 1.41.514l-1.41-.514zM.35-.257L-.705 2.64l1.41.514L1.76.257.35-.257z"/><path id="G" d="M.75 0a.75.75 0 1 0-1.5 0h1.5zm-1.5 22.066a.75.75 0 0 0 1.5 0h-1.5zM-.75 0v22.066h1.5V0h-1.5z"/><path id="H" d="M.75 0a.75.75 0 1 0-1.5 0h1.5zm-1.5 3.083a.75.75 0 0 0 1.5 0h-1.5zM-.75 0v3.083h1.5V0h-1.5z"/><path id="I" d="M.705-.257a.75.75 0 0 0-1.41.514l1.41-.514zm6.137 21.248a.75.75 0 1 0 1.41-.512l-1.41.512zM-.705.257L6.842 20.99l1.41-.512L.705-.258l-1.41.514z"/><path id="J" d="M.705-.257a.75.75 0 1 0-1.41.514l1.41-.514zM.35 3.153a.75.75 0 1 0 1.41-.513l-1.41.514zM-.705.258L.35 3.154l1.41-.514L.705-.257l-1.41.514z"/><path id="K" d="M.575-.482a.75.75 0 0 0-1.15.964l1.15-.964zM13.61 17.385a.75.75 0 1 0 1.149-.964l-1.15.964zM-.575.482L13.61 17.385l1.15-.964L.575-.482l-1.15.964z"/><path id="L" d="M.575-.482a.75.75 0 1 0-1.15.964l1.15-.964zm.832 3.326a.75.75 0 0 0 1.15-.964l-1.15.964zM-.575.482l1.982 2.362 1.15-.964L.575-.482l-1.15.964z"/><path id="M" d="M-.575 16.42a.75.75 0 1 0 1.15.965l-1.15-.964zM14.758.483a.75.75 0 1 0-1.148-.964l1.149.964zM.575 17.385L14.759.482l-1.15-.964L-.574 16.42l1.15.964z"/><path id="N" d="M-.575 1.88a.75.75 0 0 0 1.15.964l-1.15-.964zM2.557.482a.75.75 0 0 0-1.15-.964l1.15.964zM.575 2.844L2.557.482l-1.15-.964L-.575 1.88l1.15.964z"/><path id="O" d="M-.705 20.479a.75.75 0 0 0 1.41.512l-1.41-.512zM8.252.256a.75.75 0 0 0-1.41-.514l1.41.514zM.705 20.99L8.252.257l-1.41-.514-7.547 20.735 1.41.513z"/><path id="P" d="M-.705 2.64a.75.75 0 1 0 1.41.514l-1.41-.514zM1.76.257A.75.75 0 1 0 .35-.257l1.41.514zM.705 3.154L1.76.257.35-.257-.705 2.64l1.41.514z"/><path id="Q" d="M0-.75a.75.75 0 1 0 0 1.5v-1.5zM35.344.75a.75.75 0 0 0 0-1.5v1.5zM0 .75h35.344v-1.5H0v1.5z"/><path id="R" fill-rule="evenodd" d="M1.023 12.268L0 11.169l5.418-5.034L0 1.099 1.023 0 7.62 6.135l-6.597 6.133z"/><path id="S" d="M0-.75a.75.75 0 1 0 0 1.5v-1.5zM25.982.75a.75.75 0 0 0 0-1.5v1.5zM0 .75h25.982v-1.5H0v1.5z"/><path id="T" fill-rule="evenodd" d="M11.567 5.992L8.107 0H6.486l3.46 5.992H8.325L4.865 0H3.242l3.461 5.992H5.082L1.621 0H0l3.461 5.992H1.802v1.412h1.659L0 13.397h1.621l3.461-5.993h1.621l-3.461 5.993h1.623l3.46-5.993h1.621l-3.46 5.993h1.621l3.46-5.993V5.992z"/><path id="U" d="M9.5.75a.75.75 0 0 0-.002-1.5L9.5.75zM0-.743a.75.75 0 0 0 0 1.5v-1.5zM9.497-.75L0-.743l.002 1.5L9.5.75l-.002-1.5z"/><path id="V" d="M5.25.75a.75.75 0 0 0 0-1.5v1.5zM0-.746a.75.75 0 0 0 0 1.5v-1.5zM5.25-.75L0-.746v1.5L5.25.75v-1.5z"/><path id="W" d="M14.5.75a.75.75 0 0 0-.002-1.5L14.5.75zM0-.74a.75.75 0 0 0 0 1.5v-1.5zm14.498-.01L0-.74.001.76 14.499.75v-1.5z"/><path id="X" d="M19.5.75a.75.75 0 1 0 0-1.5v1.5zM0-.736a.75.75 0 0 0 0 1.5v-1.5zM19.5-.75L0-.736v1.5L19.5.75v-1.5z"/><path id="Y" d="M24.5.75a.75.75 0 0 0 0-1.5v1.5zM0-.733a.75.75 0 0 0 0 1.5v-1.5zM24.5-.75L0-.733v1.5L24.5.75v-1.5z"/><path id="Z" d="M-.009-.696a.75.75 0 0 0 .018 1.5l-.018-1.5zM4.507.75a.75.75 0 1 0-.018-1.5l.018 1.5zM.009.804L4.507.75l-.018-1.5-4.498.054.018 1.5z"/><path id="aa" d="M-.009-.687a.75.75 0 0 0 .018 1.5l-.018-1.5zM5.259.75a.75.75 0 0 0-.018-1.5l.018 1.5zM.009.813L5.259.75l-.018-1.5-5.25.063.018 1.5z"/><path id="ab" d="M-.009-.576a.75.75 0 0 0 .018 1.5l-.018-1.5zM14.507.75a.75.75 0 1 0-.018-1.5l.018 1.5zM.009.924L14.507.75l-.018-1.5-14.498.174.018 1.5z"/><path id="ac" d="M-.009-.516a.75.75 0 0 0 .018 1.5l-.018-1.5zM19.507.75a.75.75 0 1 0-.018-1.5l.018 1.5zM.009.984L19.507.75l-.018-1.5-19.498.234.018 1.5z"/><path id="ad" d="M-.009-.636a.75.75 0 0 0 .018 1.5l-.018-1.5zM9.507.75a.75.75 0 1 0-.018-1.5l.018 1.5zM.009.864L9.507.75l-.018-1.5-9.498.114.018 1.5z"/></defs></svg>