<svg width="203" height="158" viewBox="0 0 203 158" xmlns="http://www.w3.org/2000/svg" xmlns:xlink="http://www.w3.org/1999/xlink"><title>Sapmarine</title><g><use xlink:href="#a" transform="translate(34.883 23.92)" fill="#3FE1D6"/><g><use xlink:href="#b" transform="translate(49.721 18.11)"/><use xlink:href="#c" transform="translate(53.883 22.92)"/><use xlink:href="#d" transform="translate(1.093 57.74)"/><use xlink:href="#d" transform="translate(1.093 65.13)"/><use xlink:href="#d" transform="translate(1.093 72.52)"/><use xlink:href="#e" transform="translate(1.093 79.9)"/><use xlink:href="#e" transform="translate(1.093 87.29)"/><use xlink:href="#d" transform="translate(1.093 94.68)"/><use xlink:href="#d" transform="translate(152.803 57.74)"/><use xlink:href="#d" transform="translate(152.803 65.13)"/><use xlink:href="#d" transform="translate(152.803 72.52)"/><use xlink:href="#e" transform="translate(152.803 79.9)"/><use xlink:href="#e" transform="translate(152.803 87.29)"/><use xlink:href="#d" transform="translate(152.803 94.68)"/><use xlink:href="#f" transform="translate(57.754 2.27)"/><use xlink:href="#g" transform="translate(54.928 .86)"/><use xlink:href="#h" transform="translate(127.095 122.37)"/><use xlink:href="#i" transform="translate(135.725 144.02)"/><use xlink:href="#j" transform="translate(127.095 2.27)"/><use xlink:href="#k" transform="translate(136.97 .86)"/><use xlink:href="#l" transform="translate(62.435 122.37)"/><use xlink:href="#m" transform="translate(51.141 144.02)"/><use xlink:href="#n" transform="translate(80.437 10.03)"/><use xlink:href="#o" transform="translate(80.436 133.2)"/><use xlink:href="#p" transform="translate(95.989 55.92)"/><use xlink:href="#q" transform="translate(101.261 66.47)"/><use xlink:href="#r" transform="translate(87.552 91.25)"/><use xlink:href="#s" transform="translate(94.802 71.74)"/></g></g><defs><path id="a" fill-rule="evenodd" d="M0 82.062V27.354L47.379 0l47.378 27.354v54.708l-47.378 27.354L0 82.062z"/><path id="b" d="M0 29.757l-.375-.65a.75.75 0 0 0-.375.65H0zM51.54 0l.375-.65a.75.75 0 0 0-.75 0l.375.65zm51.541 29.757h.75a.75.75 0 0 0-.375-.65l-.375.65zm0 59.514l.375.65a.75.75 0 0 0 .375-.65h-.75zM51.54 119.028l-.375.65a.755.755 0 0 0 .75 0l-.375-.65zM0 89.271h-.75a.75.75 0 0 0 .375.65L0 89.27zm.375-58.864L51.915.65l-.75-1.3-51.54 29.758.75 1.299zM51.165.65l51.541 29.757.75-1.3L51.915-.65l-.75 1.3zm51.166 29.107v59.514h1.5V29.757h-1.5zm.375 58.864l-51.541 29.757.75 1.3 51.541-29.757-.75-1.3zm-50.791 29.757L.375 88.621l-.75 1.3 51.54 29.757.75-1.3zM.75 89.271V29.757h-1.5v59.514h1.5z"/><path id="c" d="M0 82.062h-1.5a1.5 1.5 0 0 0 .75 1.299L0 82.062zm0-54.708l-.75-1.299a1.5 1.5 0 0 0-.75 1.299H0zM47.379 0l.75-1.299a1.5 1.5 0 0 0-1.5 0L47.379 0zm47.378 27.354h1.5a1.5 1.5 0 0 0-.75-1.299l-.75 1.299zm0 54.708l.75 1.299a1.5 1.5 0 0 0 .75-1.299h-1.5zm-47.378 27.354l-.75 1.299a1.5 1.5 0 0 0 1.5 0l-.75-1.299zM1.5 82.062V27.354h-3v54.708h3zM.75 28.653L48.129 1.299l-1.5-2.598L-.75 26.055l1.5 2.598zM46.629 1.299l47.378 27.354 1.5-2.598L48.129-1.299l-1.5 2.598zm46.628 26.055v54.708h3V27.354h-3zm.75 53.409l-47.378 27.354 1.5 2.598 47.378-27.354-1.5-2.598zm-45.878 27.354L.75 80.763l-1.5 2.598 47.379 27.354 1.5-2.598z"/><path id="d" d="M0-.75a.75.75 0 1 0 0 1.5v-1.5zM48.603.75a.75.75 0 0 0 0-1.5v1.5zM0 .75c1.788 0 2.642.597 3.62 1.28 1.047.733 2.218 1.552 4.479 1.552v-1.5c-1.789 0-2.643-.597-3.62-1.28C3.431.068 2.261-.75 0-.75v1.5zm8.099 2.832c2.26 0 3.431-.819 4.479-1.551.977-.684 1.831-1.281 3.62-1.281v-1.5c-2.261 0-3.432.819-4.48 1.551-.977.684-1.83 1.281-3.619 1.281v1.5zM16.198.75c1.788 0 2.642.597 3.62 1.28 1.047.733 2.218 1.552 4.479 1.552v-1.5c-1.789 0-2.643-.597-3.62-1.28C19.629.068 18.459-.75 16.198-.75v1.5zm8.099 2.832c2.261 0 3.432-.819 4.48-1.551.977-.684 1.831-1.281 3.621-1.281v-1.5c-2.262 0-3.433.819-4.48 1.551-.978.684-1.832 1.281-3.621 1.281v1.5zM32.398.75c1.79 0 2.645.597 3.622 1.28 1.049.733 2.22 1.552 4.482 1.552v-1.5c-1.79 0-2.645-.597-3.622-1.28C35.83.068 34.66-.75 32.398-.75v1.5zm8.104 2.832c2.261 0 3.432-.819 4.48-1.551.977-.684 1.831-1.281 3.621-1.281v-1.5c-2.261 0-3.433.819-4.48 1.551-.978.684-1.832 1.281-3.621 1.281v1.5z"/><path id="e" d="M0-.75a.75.75 0 1 0 0 1.5v-1.5zM48.603.75a.75.75 0 0 0 0-1.5v1.5zM0 .75c1.788 0 2.642.597 3.62 1.28 1.047.733 2.218 1.551 4.479 1.551v-1.5c-1.789 0-2.643-.597-3.62-1.28C3.43.068 2.26-.75 0-.75v1.5zm8.099 2.831c2.26 0 3.431-.818 4.479-1.55.977-.684 1.831-1.281 3.62-1.281v-1.5c-2.261 0-3.432.818-4.48 1.55-.977.684-1.83 1.281-3.619 1.281v1.5zM16.198.75c1.788 0 2.642.597 3.62 1.28 1.047.733 2.218 1.551 4.479 1.551v-1.5c-1.789 0-2.643-.597-3.62-1.28C19.629.068 18.459-.75 16.198-.75v1.5zm8.099 2.831c2.261 0 3.432-.818 4.48-1.55.977-.684 1.831-1.281 3.621-1.281v-1.5c-2.262 0-3.433.818-4.48 1.55-.978.684-1.832 1.281-3.621 1.281v1.5zM32.398.75c1.79 0 2.645.597 3.622 1.28 1.049.733 2.22 1.551 4.482 1.551v-1.5c-1.79 0-2.645-.597-3.623-1.28C35.831.068 34.66-.75 32.398-.75v1.5zm8.104 2.831c2.261 0 3.432-.818 4.48-1.55.977-.684 1.831-1.281 3.621-1.281v-1.5c-2.261 0-3.433.818-4.48 1.55-.978.684-1.832 1.281-3.621 1.281v1.5z"/><path id="f" d="M17.023 30.984a.75.75 0 0 0 1.299-.75l-1.3.75zM.65-.375a.75.75 0 1 0-1.3.75l1.3-.75zm17.672 30.609L.65-.375l-1.3.75 17.672 30.609 1.3-.75z"/><path id="g" fill-rule="evenodd" d="M10.624 2.646l-.44 1.435-7.069-2.174-1.652 7.21L0 8.78 2.014 0l8.61 2.646z"/><path id="h" d="M12.341 22.876a.75.75 0 0 0 1.3-.75l-1.3.75zM.65-.375a.75.75 0 0 0-1.3.75l1.3-.75zm12.99 22.501L.65-.375l-1.3.75 12.992 22.501 1.298-.75z"/><path id="i" fill-rule="evenodd" d="M3.46.706L0 6.698l.811 1.404 3.46-5.992.81 1.404-3.459 5.992.811 1.405 3.459-5.993.81 1.404-3.459 5.993.811 1.404 3.459-5.993.83 1.437 1.223-.707-.83-1.436 6.92.001-.81-1.404-6.92-.001-.811-1.404 6.92.001-.811-1.405h-6.92l-.81-1.404h6.919L11.602 0H4.683L3.46.706z"/><path id="j" d="M-.65 30.234a.75.75 0 1 0 1.3.75l-1.3-.75zM18.321.375a.75.75 0 0 0-1.299-.75l1.3.75zM.65 30.984L18.322.375l-1.3-.75L-.65 30.234l1.3.75z"/><path id="k" fill-rule="evenodd" d="M10.624 8.78l-1.463.337L7.51 1.908.439 4.081 0 2.646 8.611 0l2.013 8.78z"/><path id="l" d="M-.65 22.126a.75.75 0 1 0 1.3.75l-1.3-.75zM13.64.375a.75.75 0 0 0-1.299-.75l1.3.75zM.65 22.876L13.64.375l-1.299-.75-12.99 22.501 1.299.75z"/><path id="m" fill-rule="evenodd" d="M10.973 0H4.054l-.811 1.404h6.919l-.81 1.404H2.433l-.812 1.405 6.92-.001-.81 1.404-6.92.001L0 7.021l6.92-.001-.829 1.437 1.223.706.829-1.437 3.459 5.994.811-1.404-3.459-5.994.81-1.404 3.459 5.994.812-1.406-3.46-5.992.811-1.404 3.459 5.992.811-1.404-3.46-5.992L10.973 0z"/><path id="n" d="M40.899 13.322a1.5 1.5 0 1 0 1.5-2.598l-1.5 2.598zM20.824 0l.75-1.299a1.5 1.5 0 0 0-1.5 0L20.824 0zM-.75 10.724a1.5 1.5 0 1 0 1.5 2.598l-1.5-2.598zm43.149 0L21.574-1.299l-1.5 2.598 20.825 12.023 1.5-2.598zM20.074-1.299L-.75 10.724l1.5 2.598L21.574 1.299l-1.5-2.598z"/><path id="o" d="M.75-1.299a1.5 1.5 0 0 0-1.5 2.598l1.5-2.598zm20.075 13.322l-.75 1.299a1.5 1.5 0 0 0 1.5 0l-.75-1.299zM42.399 1.299a1.5 1.5 0 1 0-1.5-2.598l1.5 2.598zm-43.149 0l20.825 12.023 1.5-2.598L.75-1.299l-1.5 2.598zm22.325 12.023L42.399 1.299l-1.5-2.598-20.824 12.023 1.5 2.598z"/><path id="p" d="M9.795 5.273a4.523 4.523 0 0 1-4.523 4.523v1.5a6.023 6.023 0 0 0 6.023-6.023h-1.5zM5.272 9.796A4.522 4.522 0 0 1 .75 5.273h-1.5a6.022 6.022 0 0 0 6.022 6.023v-1.5zM.75 5.273A4.522 4.522 0 0 1 5.272.75v-1.5A6.022 6.022 0 0 0-.75 5.273h1.5zM5.272.75a4.523 4.523 0 0 1 4.523 4.523h1.5A6.023 6.023 0 0 0 5.272-.75v1.5z"/><path id="q" d="M.75 0a.75.75 0 1 0-1.5 0h1.5zm-1.5 32.691a.75.75 0 0 0 1.5 0h-1.5zM-.75 0v32.691h1.5V0h-1.5z"/><path id="r" d="M-.656.363c6.247 11.294 22.483 11.294 28.73 0l-1.312-.726C21.085 9.899 6.332 9.899.656-.363L-.656.363z"/><path id="s" d="M0-.75a.75.75 0 1 0 0 1.5v-1.5zM12.918.75a.75.75 0 0 0 0-1.5v1.5zM0 .75h12.918v-1.5H0v1.5z"/></defs></svg>