<svg width="175" height="175" viewBox="0 0 175 175" xmlns="http://www.w3.org/2000/svg" xmlns:xlink="http://www.w3.org/1999/xlink"><title>The Bin</title><g><use xlink:href="#a" transform="translate(36.064 24.36)" fill="#BA329E"/><g><use xlink:href="#b" transform="translate(21.064 21.36)"/><use xlink:href="#c" transform="translate(13.992 14.29)"/><use xlink:href="#d" transform="translate(133.051 87.47)"/><use xlink:href="#d" transform="translate(33.051 87.47)"/><use xlink:href="#e" transform="translate(87.176 33.35)"/><use xlink:href="#e" transform="translate(87.176 133.35)"/><use xlink:href="#f" transform="translate(11.564 96.44)"/><use xlink:href="#g" transform="translate(96.143 11.86)"/><use xlink:href="#h" transform="translate(8.383 96.44)"/><use xlink:href="#i" transform="translate(.782 103.51)"/><use xlink:href="#j" transform="translate(13.178 104.77)"/><use xlink:href="#i" transform="translate(5.577 115.37)"/><use xlink:href="#k" transform="translate(17.973 113.1)"/><use xlink:href="#i" transform="translate(10.372 127.24)"/><use xlink:href="#l" transform="translate(22.768 121.43)"/><use xlink:href="#i" transform="translate(15.167 139.11)"/><use xlink:href="#m" transform="translate(27.563 129.76)"/><use xlink:href="#i" transform="translate(19.962 150.97)"/><use xlink:href="#l" transform="translate(39.429 138.09)"/><use xlink:href="#i" transform="translate(31.828 155.77)"/><use xlink:href="#k" transform="translate(51.295 146.42)"/><use xlink:href="#i" transform="translate(43.694 160.56)"/><use xlink:href="#j" transform="translate(63.162 154.75)"/><use xlink:href="#i" transform="translate(55.561 165.36)"/><use xlink:href="#h" transform="translate(75.028 163.08)"/><use xlink:href="#i" transform="translate(67.427 170.15)"/><use xlink:href="#n" transform="translate(96.143 8.68)"/><use xlink:href="#o" transform="translate(103.214 1.08)"/><use xlink:href="#p" transform="translate(104.474 13.47)"/><use xlink:href="#o" transform="translate(115.08 5.87)"/><use xlink:href="#q" transform="translate(112.805 18.27)"/><use xlink:href="#o" transform="translate(126.946 10.67)"/><use xlink:href="#r" transform="translate(121.135 23.06)"/><use xlink:href="#o" transform="translate(138.813 15.46)"/><use xlink:href="#s" transform="translate(129.466 27.86)"/><use xlink:href="#o" transform="translate(150.679 20.26)"/><use xlink:href="#r" transform="translate(137.797 39.72)"/><use xlink:href="#o" transform="translate(155.474 32.12)"/><use xlink:href="#q" transform="translate(146.127 51.59)"/><use xlink:href="#o" transform="translate(160.269 43.99)"/><use xlink:href="#p" transform="translate(154.458 63.46)"/><use xlink:href="#o" transform="translate(165.064 55.86)"/><use xlink:href="#n" transform="translate(162.788 75.32)"/><use xlink:href="#o" transform="translate(169.858 67.72)"/><use xlink:href="#t" transform="translate(124.128 124.81)"/><use xlink:href="#u" transform="translate(141.267 141.95)"/><use xlink:href="#v" transform="translate(31.488 32.17)"/><use xlink:href="#w" transform="translate(18.981 19.66)"/></g></g><defs><path id="a" fill-rule="evenodd" d="M66.112 132.225L0 66.113 66.112 0l66.112 66.113-66.112 66.112z"/><path id="b" d="M66.112 132.225l-1.06 1.061a1.501 1.501 0 0 0 2.12 0l-1.06-1.061zM0 66.113l-1.06-1.06a1.5 1.5 0 0 0 0 2.12L0 66.114zM66.112 0l1.06-1.06a1.5 1.5 0 0 0-2.12 0L66.111 0zm66.112 66.113l1.061 1.06a1.502 1.502 0 0 0 0-2.12l-1.061 1.06zm-65.051 65.051L1.06 65.052l-2.122 2.122 66.112 66.112 2.122-2.122zM1.06 67.174L67.173 1.06 65.05-1.061-1.06 65.052l2.122 2.122zM65.05 1.06l66.112 66.113 2.122-2.122L67.173-1.06 65.05 1.061zm66.112 63.991l-66.112 66.112 2.122 2.122 66.112-66.112-2.122-2.122z"/><path id="c" d="M0 73.184l-.53-.53a.75.75 0 0 0 0 1.06l.53-.53zM73.184 0l.53-.53a.75.75 0 0 0-1.06 0l.53.53zm73.184 73.184l.53.53a.749.749 0 0 0 0-1.06l-.53.53zm-73.184 73.183l-.53.53a.75.75 0 0 0 1.06 0l-.53-.53zM.53 73.714L73.714.53l-1.06-1.06L-.53 72.654l1.06 1.06zM72.654.53l73.184 73.184 1.06-1.06L73.714-.53 72.654.53zm73.184 72.124l-73.184 73.183 1.06 1.06 73.184-73.183-1.06-1.06zm-72.124 73.183L.53 72.654l-1.06 1.06 73.184 73.183 1.06-1.06z"/><path id="d" d="M0-.75a.75.75 0 1 0 0 1.5v-1.5zM8.25.75a.75.75 0 0 0 0-1.5v1.5zM0 .75h8.25v-1.5H0v1.5z"/><path id="e" d="M-.75 8.25a.75.75 0 0 0 1.5 0h-1.5zM.75 0a.75.75 0 1 0-1.5 0h1.5zm0 8.25V0h-1.5v8.25h1.5z"/><path id="f" d="M65.584 67.706a1.5 1.5 0 0 0 2.122-2.122l-2.122 2.122zM1.061-1.061a1.5 1.5 0 1 0-2.122 2.122l2.122-2.122zm66.645 66.645L1.06-1.06l-2.122 2.122 66.645 66.645 2.122-2.122z"/><path id="g" d="M1.06-1.06a1.5 1.5 0 1 0-2.12 2.12l2.12-2.12zm64.524 68.766a1.5 1.5 0 0 0 2.122-2.122l-2.122 2.122zM-1.06 1.06l66.645 66.645 2.122-2.122L1.06-1.06l-2.122 2.122z"/><path id="h" d="M3.711.53a.75.75 0 0 0-1.06-1.06L3.71.53zM-.53 2.65A.75.75 0 0 0 .53 3.712l-1.06-1.06zM2.65-.53L-.53 2.65.53 3.712 3.711.531 2.651-.53z"/><path id="i" d="M4.242.53a.75.75 0 0 0-1.06-1.06L4.242.53zM-.53 3.182a.75.75 0 0 0 1.06 1.06l-1.06-1.06zM3.182-.53L-.53 3.182l1.06 1.06L4.242.53 3.182-.53z"/><path id="j" d="M7.247.53a.75.75 0 0 0-1.06-1.06L7.247.53zM-.53 6.187a.75.75 0 0 0 1.06 1.06l-1.06-1.06zM6.187-.53L-.53 6.187l1.06 1.06L7.247.53 6.187-.53z"/><path id="k" d="M10.783.53a.75.75 0 1 0-1.06-1.06l1.06 1.06zM-.53 9.723a.75.75 0 1 0 1.06 1.06l-1.06-1.06zM9.723-.53L-.53 9.723l1.06 1.06L10.783.53 9.723-.53z"/><path id="l" d="M14.318.53a.75.75 0 0 0-1.06-1.06l1.06 1.06zM-.53 13.258a.75.75 0 1 0 1.06 1.06l-1.06-1.06zM13.258-.53L-.53 13.258l1.06 1.06L14.318.53l-1.06-1.06z"/><path id="m" d="M17.854.53a.75.75 0 0 0-1.06-1.06l1.06 1.06zM-.53 16.794a.75.75 0 1 0 1.06 1.06l-1.06-1.06zM16.794-.53L-.53 16.794l1.06 1.06L17.854.53l-1.06-1.06z"/><path id="n" d="M-.53 2.65A.75.75 0 0 0 .53 3.712l-1.06-1.06zM3.71.53a.75.75 0 0 0-1.06-1.06L3.71.53zM.531 3.711L3.71.531 2.651-.53-.53 2.65.53 3.712z"/><path id="o" d="M-.53 3.182a.75.75 0 0 0 1.06 1.06l-1.06-1.06zM4.242.53a.75.75 0 0 0-1.06-1.06L4.242.53zM.53 4.242L4.242.53 3.182-.53-.53 3.182l1.06 1.06z"/><path id="p" d="M-.53 6.187a.75.75 0 0 0 1.06 1.06l-1.06-1.06zM7.247.53a.75.75 0 0 0-1.06-1.06L7.247.53zM.53 7.247L7.247.53 6.187-.53-.53 6.187l1.06 1.06z"/><path id="q" d="M-.53 9.723a.75.75 0 1 0 1.06 1.06l-1.06-1.06zM10.783.53a.75.75 0 1 0-1.06-1.06l1.06 1.06zM.53 10.783L10.783.53 9.723-.53-.53 9.723l1.06 1.06z"/><path id="r" d="M-.53 13.258a.75.75 0 1 0 1.06 1.06l-1.06-1.06zM14.318.53a.75.75 0 0 0-1.06-1.06l1.06 1.06zM.53 14.318L14.318.53l-1.06-1.06L-.53 13.258l1.06 1.06z"/><path id="s" d="M-.53 16.794a.75.75 0 1 0 1.06 1.06l-1.06-1.06zM17.854.53a.75.75 0 0 0-1.06-1.06l1.06 1.06zM.53 17.854L17.854.53l-1.06-1.06L-.53 16.794l1.06 1.06z"/><path id="t" d="M.53-.53A.75.75 0 0 0-.53.53L.53-.53zm23.932 26.052a.75.75 0 1 0 1.06-1.06l-1.06 1.06zM-.53.53l24.992 24.992 1.06-1.06L.53-.53-.53.53z"/><path id="u" fill-rule="evenodd" d="M0 8.675l.053-1.5 7.391.27-.27-7.391L8.675 0l.327 9.003L0 8.675z"/><path id="v" d="M.53-.53A.75.75 0 0 0-.53.53L.53-.53zm17.312 19.432a.75.75 0 1 0 1.06-1.06l-1.06 1.06zM-.53.53l18.372 18.372 1.06-1.06L.53-.53-.53.53z"/><path id="w" fill-rule="evenodd" d="M13.415 12.416l1.791-6.683-1.146-1.147-1.791 6.684-1.147-1.147 1.791-6.683-1.147-1.148-1.79 6.685L8.829 7.83l1.79-6.684L9.473 0l-1.79 6.684L6.51 5.511l-.999.999 1.173 1.173L0 9.473l1.146 1.146 6.685-1.79 1.146 1.147-6.684 1.79 1.147 1.147 6.684-1.791 1.146 1.146-6.684 1.791 1.147 1.147 6.683-1.791.999-.999z"/></defs></svg>