<svg width="174" height="174" viewBox="0 0 174 174" xmlns="http://www.w3.org/2000/svg" xmlns:xlink="http://www.w3.org/1999/xlink"><title>Weather</title><g><use xlink:href="#a" transform="translate(53.389 50.9)" fill="#E5BD1F"/><g><use xlink:href="#b" transform="translate(41.389 41.9)"/><use xlink:href="#c" transform="translate(37.211 37.72)"/><use xlink:href="#d" transform="translate(46.726 31.22)"/><use xlink:href="#e" transform="translate(46.727 126.33)"/><use xlink:href="#f" transform="translate(86.645 9.159)"/><use xlink:href="#g" transform="translate(86.645 1.409)"/><use xlink:href="#h" transform="translate(74.023 14.803)"/><use xlink:href="#i" transform="translate(72.677 7.171)"/><use xlink:href="#j" transform="translate(50.278 23.35)"/><use xlink:href="#k" transform="translate(46.403 16.641)"/><use xlink:href="#l" transform="translate(49.845 135.45)"/><use xlink:href="#m" transform="translate(45.97 154.63)"/><use xlink:href="#n" transform="translate(73.53 142.09)"/><use xlink:href="#o" transform="translate(72.185 163.9)"/><use xlink:href="#p" transform="translate(95.731 142.17)"/><use xlink:href="#q" transform="translate(99.578 163.99)"/><use xlink:href="#r" transform="translate(113.771 135.7)"/><use xlink:href="#s" transform="translate(124.845 154.88)"/><use xlink:href="#t" transform="translate(114.204 23.6)"/><use xlink:href="#u" transform="translate(125.278 16.891)"/><use xlink:href="#v" transform="translate(96.224 14.89)"/><use xlink:href="#w" transform="translate(100.07 7.258)"/><use xlink:href="#x" transform="translate(59.967 13.863)"/><use xlink:href="#y" transform="translate(57.316 6.581)"/><use xlink:href="#z" transform="translate(36.507 27.41)"/><use xlink:href="#A" transform="translate(31.526 21.471)"/><use xlink:href="#B" transform="translate(36.507 130.01)"/><use xlink:href="#C" transform="translate(31.526 150.49)"/><use xlink:href="#D" transform="translate(59.967 139.72)"/><use xlink:href="#E" transform="translate(57.316 164.84)"/><use xlink:href="#F" transform="translate(86.645 143.09)"/><use xlink:href="#G" transform="translate(86.645 169.83)"/><use xlink:href="#H" transform="translate(105.776 139.72)"/><use xlink:href="#I" transform="translate(114.919 164.84)"/><use xlink:href="#J" transform="translate(122.599 130.01)"/><use xlink:href="#K" transform="translate(139.782 150.49)"/><use xlink:href="#L" transform="translate(122.599 27.41)"/><use xlink:href="#M" transform="translate(139.782 21.471)"/><use xlink:href="#N" transform="translate(105.776 13.863)"/><use xlink:href="#O" transform="translate(114.919 6.581)"/><use xlink:href="#P" transform="translate(136.079 87.16)"/><use xlink:href="#Q" transform="translate(165.43 81.03)"/><use xlink:href="#R" transform="translate(11.068 87.16)"/><use xlink:href="#S" transform="translate(.08 80.46)"/><use xlink:href="#T" transform="translate(131.847 52.83)"/><use xlink:href="#U" transform="translate(156.652 49.23)"/><use xlink:href="#V" transform="translate(17.521 107.19)"/><use xlink:href="#W" transform="translate(4.762 112.74)"/><use xlink:href="#X" transform="translate(131.847 107.19)"/><use xlink:href="#Y" transform="translate(156.652 113.87)"/><use xlink:href="#Z" transform="translate(17.521 56.62)"/><use xlink:href="#aa" transform="translate(4.761 46.05)"/><use xlink:href="#ab" transform="translate(103.291 84.76)"/><use xlink:href="#ac" transform="translate(107.791 81.59)"/><use xlink:href="#ad" transform="translate(103.958 82.62)"/><use xlink:href="#ae" transform="translate(101.152 85.42)"/><use xlink:href="#af" transform="translate(100.124 89.26)"/><use xlink:href="#ag" transform="translate(101.152 91.51)"/><use xlink:href="#ah" transform="translate(103.958 93.15)"/><use xlink:href="#ai" transform="translate(107.791 93.76)"/><use xlink:href="#aj" transform="translate(110.041 93.15)"/><use xlink:href="#ak" transform="translate(111.688 91.51)"/><use xlink:href="#al" transform="translate(112.291 89.26)"/><use xlink:href="#am" transform="translate(111.688 85.42)"/><use xlink:href="#an" transform="translate(110.041 82.62)"/><use xlink:href="#ao" transform="translate(52.316 104.94)"/><use xlink:href="#ap" transform="translate(69.483 115.15)"/></g></g><defs><path id="a" fill-rule="evenodd" d="M90.511 45.255c0 24.994-20.262 45.255-45.255 45.255C20.262 90.51 0 70.249 0 45.255 0 20.261 20.262 0 45.256 0c24.993 0 45.255 20.261 45.255 45.255z"/><path id="b" d="M89.011 45.255c0 24.166-19.59 43.755-43.755 43.755v3c25.821 0 46.755-20.933 46.755-46.755h-3zM45.256 89.01C21.09 89.01 1.5 69.42 1.5 45.255h-3c0 25.822 20.934 46.755 46.756 46.755v-3zM1.5 45.255C1.5 21.089 21.09 1.5 45.256 1.5v-3C19.434-1.5-1.5 19.433-1.5 45.255h3zM45.256 1.5c24.165 0 43.755 19.59 43.755 43.755h3C92.011 19.433 71.077-1.5 45.256-1.5v3z"/><path id="c" d="M98.119 49.435c0 26.888-21.797 48.685-48.685 48.685v1.5c27.716 0 50.185-22.469 50.185-50.185h-1.5zM49.434 98.12C22.546 98.12.75 76.323.75 49.435h-1.5c0 27.716 22.468 50.185 50.184 50.185v-1.5zM.75 49.435C.75 22.547 22.546.75 49.434.75v-1.5C21.718-.75-.75 21.719-.75 49.435h1.5zM49.434.75c26.888 0 48.685 21.797 48.685 48.685h1.5C99.619 21.719 77.15-.75 49.434-.75v1.5z"/><path id="d" d="M78.766 17.819a1.5 1.5 0 0 0 2.142-2.102l-2.142 2.102zM-1.07 15.717a1.5 1.5 0 0 0 2.142 2.102l-2.142-2.102zm81.979 0C70.488 5.098 55.976-1.5 39.918-1.5v3c15.218 0 28.968 6.25 38.848 16.319l2.142-2.102zM39.918-1.5C23.862-1.5 9.349 5.098-1.071 15.717l2.142 2.102C10.95 7.749 24.7 1.5 39.918 1.5v-3z"/><path id="e" d="M1.07-1.05a1.5 1.5 0 1 0-2.14 2.1l2.14-2.1zm79.838 2.1a1.5 1.5 0 1 0-2.142-2.1l2.142 2.1zm-81.979 0C9.35 11.67 23.861 18.269 39.918 18.269v-3c-15.217 0-28.967-6.25-38.847-16.319l-2.142 2.102zm40.989 17.218c16.058 0 30.57-6.598 40.99-17.217l-2.142-2.102c-9.88 10.07-23.63 16.319-38.848 16.319v3z"/><path id="f" d="M-.75 22.066a.75.75 0 0 0 1.5 0h-1.5zM.75 0a.75.75 0 1 0-1.5 0h1.5zm0 22.066V0h-1.5v22.066h1.5z"/><path id="g" d="M-.75 3.083a.75.75 0 0 0 1.5 0h-1.5zM.75 0a.75.75 0 1 0-1.5 0h1.5zm0 3.083V0h-1.5v3.083h1.5z"/><path id="h" d="M2.297 17.347a.75.75 0 1 0 1.478-.26l-1.478.26zM.74-.13A.75.75 0 1 0-.74.13L.74-.13zm3.036 17.217L.739-.13-.74.13l3.036 17.217 1.478-.26z"/><path id="i" d="M-.204 3.166a.75.75 0 0 0 1.478-.26l-1.478.26zM.74-.13A.75.75 0 0 0-.74.13L.74-.13zm.535 3.036L.739-.13-.74.13l.535 3.036 1.478-.26z"/><path id="j" d="M8.091 15.515a.75.75 0 0 0 1.3-.75l-1.3.75zM.65-.375a.75.75 0 0 0-1.3.75l1.3-.75zm8.74 15.14L.65-.375l-1.3.75 8.741 15.14 1.3-.75z"/><path id="k" d="M.893 3.045a.75.75 0 0 0 1.298-.75l-1.298.75zM.649-.375a.75.75 0 0 0-1.298.75l1.298-.75zm1.542 2.67L.65-.375l-1.298.75 1.542 2.67 1.298-.75z"/><path id="l" d="M9.39.375a.75.75 0 1 0-1.299-.75l1.3.75zM-.65 14.765a.75.75 0 0 0 1.3.75l-1.3-.75zM8.091-.375l-8.74 15.14 1.299.75L9.39.375l-1.299-.75z"/><path id="m" d="M2.191.375a.75.75 0 0 0-1.298-.75l1.298.75zm-2.84 1.92a.75.75 0 0 0 1.298.75l-1.298-.75zM.893-.375L-.65 2.295l1.298.75L2.191.375.893-.375z"/><path id="n" d="M3.775.13a.75.75 0 1 0-1.478-.26l1.478.26zM-.74 17.087a.75.75 0 1 0 1.478.26l-1.478-.26zM2.297-.13L-.739 17.087l1.478.26L3.775.13 2.297-.13z"/><path id="o" d="M1.274.13A.75.75 0 0 0-.204-.13l1.478.26zM-.74 2.906a.75.75 0 0 0 1.478.26l-1.478-.26zM-.204-.13l-.535 3.036 1.478.26L1.274.13-.204-.13z"/><path id="p" d="M.739-.13A.75.75 0 1 0-.74.13L.74-.13zm1.558 17.477a.75.75 0 1 0 1.478-.26l-1.478.26zM-.739.13l3.036 17.217 1.478-.26L.739-.13-.74.13z"/><path id="q" d="M.739-.13A.75.75 0 0 0-.74.13L.74-.13zm-.943 3.296a.75.75 0 0 0 1.478-.26l-1.478.26zM-.739.13l.535 3.036 1.478-.26L.739-.13-.74.13z"/><path id="r" d="M.65-.375a.75.75 0 0 0-1.3.75l1.3-.75zm7.441 15.89a.75.75 0 0 0 1.3-.75l-1.3.75zM-.649.375l8.74 15.14 1.3-.75L.65-.375l-1.3.75z"/><path id="s" d="M.65-.375a.75.75 0 0 0-1.3.75l1.3-.75zm.243 3.42a.75.75 0 0 0 1.298-.75l-1.298.75zM-.65.375l1.542 2.67 1.298-.75L.65-.375l-1.298.75z"/><path id="t" d="M-.65 14.765a.75.75 0 0 0 1.3.75l-1.3-.75zM9.39.375a.75.75 0 1 0-1.299-.75l1.3.75zM.65 15.515L9.39.375l-1.299-.75-8.74 15.14 1.299.75z"/><path id="u" d="M-.65 2.295a.75.75 0 0 0 1.3.75l-1.3-.75zM2.192.375a.75.75 0 0 0-1.298-.75l1.298.75zM.65 3.045L2.191.375.893-.375-.65 2.295l1.298.75z"/><path id="v" d="M-.739 17.087a.75.75 0 1 0 1.478.26l-1.478-.26zM3.775.13a.75.75 0 1 0-1.478-.26l1.478.26zM.739 17.347L3.775.13 2.297-.13-.739 17.087l1.478.26z"/><path id="w" d="M-.739 2.906a.75.75 0 0 0 1.478.26l-1.478-.26zM1.274.13A.75.75 0 0 0-.204-.13l1.478.26zM.739 3.166L1.274.13-.204-.13l-.535 3.036 1.478.26z"/><path id="x" d="M6.842 20.991a.75.75 0 1 0 1.41-.512l-1.41.512zM.705-.257a.75.75 0 0 0-1.41.514l1.41-.514zM8.252 20.48L.705-.258l-1.41.514 7.547 20.735 1.41-.514z"/><path id="y" d="M.35 3.154a.75.75 0 1 0 1.41-.514l-1.41.514zm.355-3.41a.75.75 0 1 0-1.41.513l1.41-.514zM1.76 2.64L.705-.257l-1.41.514L.35 3.154l1.41-.514z"/><path id="z" d="M13.61 17.385a.75.75 0 1 0 1.149-.964l-1.15.964zM.575-.482a.75.75 0 0 0-1.15.964l1.15-.964zM14.759 16.42L.575-.482l-1.15.964L13.61 17.385l1.15-.964z"/><path id="A" d="M1.407 2.844a.75.75 0 0 0 1.15-.964l-1.15.964zM.575-.482a.75.75 0 1 0-1.15.964l1.15-.964zM2.557 1.88L.575-.482l-1.15.964 1.982 2.362 1.15-.964z"/><path id="B" d="M14.758.482a.75.75 0 1 0-1.148-.964l1.149.964zM-.575 16.421a.75.75 0 1 0 1.15.964l-1.15-.964zM13.61-.482L-.574 16.42l1.15.964L14.759.482l-1.15-.964z"/><path id="C" d="M2.557.482a.75.75 0 0 0-1.15-.964l1.15.964zM-.575 1.88a.75.75 0 0 0 1.15.964l-1.15-.964zM1.407-.482L-.575 1.88l1.15.964L2.557.482l-1.15-.964z"/><path id="D" d="M8.252.257a.75.75 0 0 0-1.41-.514l1.41.514zM-.705 20.479a.75.75 0 0 0 1.41.512l-1.41-.512zM6.842-.258L-.705 20.48l1.41.512L8.252.257l-1.41-.514z"/><path id="E" d="M1.76.257A.75.75 0 1 0 .35-.257l1.41.514zM-.705 2.64a.75.75 0 1 0 1.41.514l-1.41-.514zM.35-.257L-.705 2.64l1.41.514L1.76.257.35-.257z"/><path id="F" d="M.75 0a.75.75 0 1 0-1.5 0h1.5zm-1.5 22.066a.75.75 0 0 0 1.5 0h-1.5zM-.75 0v22.066h1.5V0h-1.5z"/><path id="G" d="M.75 0a.75.75 0 1 0-1.5 0h1.5zm-1.5 3.083a.75.75 0 0 0 1.5 0h-1.5zM-.75 0v3.083h1.5V0h-1.5z"/><path id="H" d="M.705-.257a.75.75 0 0 0-1.41.514l1.41-.514zm6.137 21.248a.75.75 0 1 0 1.41-.512l-1.41.512zM-.705.257L6.842 20.99l1.41-.512L.705-.258l-1.41.514z"/><path id="I" d="M.705-.257a.75.75 0 1 0-1.41.514l1.41-.514zM.35 3.153a.75.75 0 1 0 1.41-.513l-1.41.514zM-.705.258L.35 3.154l1.41-.514L.705-.257l-1.41.514z"/><path id="J" d="M.575-.482a.75.75 0 0 0-1.15.964l1.15-.964zM13.61 17.385a.75.75 0 1 0 1.149-.964l-1.15.964zM-.575.482L13.61 17.385l1.15-.964L.575-.482l-1.15.964z"/><path id="K" d="M.575-.482a.75.75 0 1 0-1.15.964l1.15-.964zm.832 3.326a.75.75 0 0 0 1.15-.964l-1.15.964zM-.575.482l1.982 2.362 1.15-.964L.575-.482l-1.15.964z"/><path id="L" d="M-.575 16.42a.75.75 0 1 0 1.15.965l-1.15-.964zM14.758.483a.75.75 0 1 0-1.148-.964l1.149.964zM.575 17.385L14.759.482l-1.15-.964L-.574 16.42l1.15.964z"/><path id="M" d="M-.575 1.88a.75.75 0 0 0 1.15.964l-1.15-.964zM2.557.482a.75.75 0 0 0-1.15-.964l1.15.964zM.575 2.844L2.557.482l-1.15-.964L-.575 1.88l1.15.964z"/><path id="N" d="M-.705 20.479a.75.75 0 0 0 1.41.512l-1.41-.512zM8.252.256a.75.75 0 0 0-1.41-.514l1.41.514zM.705 20.99L8.252.257l-1.41-.514-7.547 20.735 1.41.513z"/><path id="O" d="M-.705 2.64a.75.75 0 1 0 1.41.514l-1.41-.514zM1.76.257A.75.75 0 1 0 .35-.257l1.41.514zM.705 3.154L1.76.257.35-.257-.705 2.64l1.41.514z"/><path id="P" d="M0-.75a.75.75 0 1 0 0 1.5v-1.5zM35.344.75a.75.75 0 0 0 0-1.5v1.5zM0 .75h35.344v-1.5H0v1.5z"/><path id="Q" fill-rule="evenodd" d="M1.023 12.268L0 11.169l5.417-5.034L0 1.099 1.023 0 7.62 6.135l-6.597 6.133z"/><path id="R" d="M0-.75a.75.75 0 1 0 0 1.5v-1.5zM25.982.75a.75.75 0 0 0 0-1.5v1.5zM0 .75h25.982v-1.5H0v1.5z"/><path id="S" fill-rule="evenodd" d="M11.567 5.992L8.107 0H6.486l3.46 5.992H8.325L4.865 0H3.242l3.461 5.992H5.082L1.621 0H0l3.461 5.992H1.802v1.413h1.659L0 13.397h1.621l3.461-5.992h1.621l-3.461 5.992h1.623l3.46-5.992h1.621l-3.46 5.992h1.621l3.46-5.992V5.992z"/><path id="T" d="M-.303 13.611a.75.75 0 0 0 .606 1.372l-.606-1.372zM32.627.686a.75.75 0 1 0-.607-1.372l.606 1.372zM.302 14.983L32.626.686 32.02-.686-.303 13.611l.606 1.372z"/><path id="U" fill-rule="evenodd" d="M5.454 11.22l-1.38-.591 2.918-6.796L0 1.419.491 0l8.515 2.942-3.552 8.278z"/><path id="V" d="M-.303 9.824a.75.75 0 0 0 .606 1.372l-.606-1.372zM24.064.686a.75.75 0 1 0-.606-1.372l.606 1.372zM.304 11.196L24.063.686l-.606-1.372L-.303 9.824l.606 1.372z"/><path id="W" fill-rule="evenodd" d="M13.002 4.081L7.414 0 5.932.656l5.587 4.081-1.482.656-5.588-4.081-1.484.656 5.589 4.08-1.483.656-5.589-4.08L0 3.28l5.589 4.08-1.517.671.571 1.292 1.517-.671-.741 6.88 1.483-.656.741-6.88 1.482-.656-.741 6.88 1.484-.656.74-6.88 1.483-.655-.74 6.879 1.483-.656.739-6.879-.571-1.292z"/><path id="X" d="M.303-.686A.75.75 0 1 0-.303.686L.303-.686zM32.02 14.983a.75.75 0 1 0 .606-1.372l-.606 1.372zM-.303.686L32.02 14.983l.606-1.372L.303-.686-.303.686z"/><path id="Y" fill-rule="evenodd" d="M.491 11.22L0 9.801l6.991-2.413L4.074.591 5.454 0l3.551 8.279L.491 11.22z"/><path id="Z" d="M.303-.686A.75.75 0 0 0-.303.686L.303-.686zm23.155 11.882a.75.75 0 1 0 .606-1.372l-.606 1.372zM-.303.686l23.76 10.51.607-1.372L.304-.686-.304.686z"/><path id="aa" fill-rule="evenodd" d="M13.574 10.159l-.74-6.88-1.482-.655.739 6.879-1.482-.656-.74-6.879-1.484-.656.741 6.88-1.483-.656-.741-6.88L5.42 0l.741 6.88-1.517-.671-.572 1.292 1.517.671L0 12.252l1.483.656 5.589-4.08 1.483.655-5.589 4.08 1.484.657 5.587-4.081 1.483.656-5.588 4.081 1.483.655 5.588-4.08.571-1.292z"/><path id="ab" d="M8.25 4.5A3.75 3.75 0 0 1 4.5 8.25v1.5c2.9 0 5.25-2.35 5.25-5.25h-1.5zM4.5 8.25A3.75 3.75 0 0 1 .75 4.5h-1.5c0 2.9 2.35 5.25 5.25 5.25v-1.5zM.75 4.5A3.75 3.75 0 0 1 4.5.75v-1.5A5.25 5.25 0 0 0-.75 4.5h1.5zM4.5.75A3.75 3.75 0 0 1 8.25 4.5h1.5C9.75 1.6 7.4-.75 4.5-.75v1.5z"/><path id="ac" d="M-.75 3.167a.75.75 0 0 0 1.5 0h-1.5zM.75 0a.75.75 0 1 0-1.5 0h1.5zm0 3.167V0h-1.5v3.167h1.5z"/><path id="ad" d="M.933 3.117a.75.75 0 1 0 1.3-.75l-1.3.75zM.65-.375a.75.75 0 0 0-1.3.75l1.3-.75zm1.583 2.742L.65-.375l-1.3.75L.933 3.117l1.3-.75z"/><path id="ae" d="M2.367 2.233a.75.75 0 1 0 .75-1.3l-.75 1.3zM.375-.65a.75.75 0 0 0-.75 1.3l.75-1.3zM3.117.933L.375-.65l-.75 1.3 2.742 1.583.75-1.3z"/><path id="af" d="M3.167.75a.75.75 0 0 0 0-1.5v1.5zM0-.75a.75.75 0 1 0 0 1.5v-1.5zm3.167 0H0v1.5h3.167v-1.5z"/><path id="ag" d="M3.117.65a.75.75 0 1 0-.75-1.3l.75 1.3zM-.375.933a.75.75 0 0 0 .75 1.3l-.75-1.3zM2.367-.65L-.375.933l.75 1.3L3.117.65l-.75-1.3z"/><path id="ah" d="M2.233.375a.75.75 0 1 0-1.3-.75l1.3.75zM-.65 2.367a.75.75 0 1 0 1.3.75l-1.3-.75zM.933-.375L-.65 2.367l1.3.75L2.233.375l-1.3-.75z"/><path id="ai" d="M.75 0a.75.75 0 1 0-1.5 0h1.5zm-1.5 3.167a.75.75 0 0 0 1.5 0h-1.5zM-.75 0v3.167h1.5V0h-1.5z"/><path id="aj" d="M.65-.375a.75.75 0 0 0-1.3.75l1.3-.75zm.283 3.492a.75.75 0 1 0 1.3-.75l-1.3.75zM-.65.375L.933 3.117l1.3-.75L.65-.375l-1.3.75z"/><path id="ak" d="M.375-.65a.75.75 0 0 0-.75 1.3l.75-1.3zm1.992 2.883a.75.75 0 1 0 .75-1.3l-.75 1.3zM-.375.65l2.742 1.583.75-1.3L.375-.65l-.75 1.3z"/><path id="al" d="M0-.75a.75.75 0 1 0 0 1.5v-1.5zM3.167.75a.75.75 0 0 0 0-1.5v1.5zM0 .75h3.167v-1.5H0v1.5z"/><path id="am" d="M-.375.933a.75.75 0 0 0 .75 1.3l-.75-1.3zM3.117.65a.75.75 0 1 0-.75-1.3l.75 1.3zM.375 2.233L3.117.65l-.75-1.3L-.375.933l.75 1.3z"/><path id="an" d="M-.65 2.367a.75.75 0 1 0 1.3.75l-1.3-.75zM2.233.375a.75.75 0 1 0-1.3-.75l1.3.75zM.65 3.117L2.233.375l-1.3-.75L-.65 2.367l1.3.75z"/><path id="ao" d="M0-.75a.75.75 0 1 0 0 1.5v-1.5zM68.659.75a.75.75 0 0 0 0-1.5v1.5zM0 .75c1.91 0 2.825.64 3.862 1.365 1.108.774 2.34 1.635 4.721 1.635v-1.5c-1.91 0-2.824-.64-3.861-1.365C3.613.111 2.382-.75 0-.75v1.5zm8.583 3c2.382 0 3.613-.86 4.72-1.635C14.342 1.389 15.257.75 17.166.75v-1.5c-2.382 0-3.613.86-4.72 1.635-1.038.726-1.953 1.365-3.862 1.365v1.5zm8.582-3c1.909 0 2.823.64 3.86 1.365 1.108.774 2.34 1.635 4.721 1.635v-1.5c-1.91 0-2.824-.64-3.861-1.365C20.777.111 19.546-.75 17.165-.75v1.5zm8.581 3c2.381 0 3.612-.86 4.72-1.635C31.503 1.389 32.417.75 34.326.75v-1.5c-2.381 0-3.612.86-4.72 1.635-1.037.726-1.951 1.365-3.86 1.365v1.5zm8.58-3c1.91 0 2.824.64 3.861 1.365 1.108.774 2.339 1.635 4.72 1.635v-1.5c-1.909 0-2.823-.64-3.86-1.365C37.939.111 36.707-.75 34.326-.75v1.5zm8.581 3c2.382 0 3.613-.86 4.72-1.635C48.666 1.389 49.58.75 51.49.75v-1.5c-2.382 0-3.613.86-4.722 1.635-1.037.726-1.952 1.365-3.861 1.365v1.5zm8.583-3c1.91 0 2.826.64 3.863 1.365 1.11.775 2.34 1.635 4.723 1.635v-1.5c-1.91 0-2.825-.64-3.863-1.365C55.104.11 53.873-.75 51.49-.75v1.5zm8.586 3c2.382 0 3.613-.86 4.72-1.635C65.835 1.389 66.75.75 68.66.75v-1.5c-2.382 0-3.613.86-4.722 1.635-1.037.726-1.952 1.365-3.861 1.365v1.5z"/><path id="ap" d="M0-.75a.75.75 0 1 0 0 1.5v-1.5zM34.325.75a.75.75 0 0 0 0-1.5v1.5zM0 .75c1.909 0 2.823.64 3.86 1.365C4.968 2.889 6.2 3.75 8.581 3.75v-1.5c-1.91 0-2.824-.64-3.861-1.365C3.612.111 2.38-.75 0-.75v1.5zm8.581 3c2.381 0 3.612-.86 4.72-1.635C14.338 1.389 15.252.75 17.16.75v-1.5c-2.381 0-3.612.86-4.72 1.635-1.037.726-1.951 1.365-3.86 1.365v1.5zm8.58-3c1.91 0 2.824.64 3.861 1.365 1.108.774 2.339 1.635 4.72 1.635v-1.5c-1.909 0-2.823-.64-3.86-1.365C20.774.111 19.542-.75 17.16-.75v1.5zm8.581 3c2.382 0 3.613-.86 4.72-1.635C31.5 1.389 32.416.75 34.326.75v-1.5c-2.382 0-3.613.86-4.722 1.635-1.037.726-1.952 1.365-3.861 1.365v1.5z"/></defs></svg>